<?xml version="1.0" encoding="UTF-8"?>
<svg width="218px" height="165px" viewBox="0 0 218 165" version="1.1" xmlns="http://www.w3.org/2000/svg" xmlns:xlink="http://www.w3.org/1999/xlink">
    <!-- Generator: Sketch 53.2 (72643) - https://sketchapp.com -->
    <title>logo-k</title>
    <desc>Created with Sketch.</desc>
    <g id="Page-1" stroke="none" stroke-width="1" fill="none" fill-rule="evenodd">
        <g id="logo-k">
            <path d="M85.71,153.29 C85.7098666,153.183333 85.7934666,153.095333 85.9,153.09 L91.81,153.09 C91.9165334,153.095333 92.0001334,153.183333 92,153.29 L92,153.55 C92.0001334,153.656667 91.9165334,153.744667 91.81,153.75 L86.42,153.75 L86.42,158.44 L91.09,158.44 C91.1965334,158.445333 91.2801334,158.533333 91.28,158.64 C91.28,158.81 91.28,159.08 91.09,159.08 L86.42,159.08 L86.42,163.67 C86.4177795,163.72955 86.3903638,163.785352 86.3445846,163.823501 C86.2988054,163.861651 86.238974,163.878554 86.18,163.87 L85.9,163.87 C85.7934666,163.864667 85.7098666,163.776667 85.71,163.67 L85.71,153.29 Z" id="Fill-1" stroke="#000000" stroke-width="1.8" fill="#000000" fill-rule="nonzero"></path>
            <g id="Group-5" transform="translate(97.000000, 153.000000)">
                <polygon id="Clip-4" points="0.04 1.88 10.85 1.88 10.85 12.67 0.04 12.67"></polygon>
                <path d="M5.44,10.22 C7.35806013,10.2199957 9.08706541,9.06404682 9.82013756,7.29160221 C10.5532097,5.51915759 10.1458392,3.47961685 8.78813446,2.12477646 C7.43042971,0.769936068 5.39003318,0.366873848 3.61914072,1.10368764 C1.84824826,1.84050143 0.69595346,3.57194414 0.7,5.49 C0.699997193,6.74620853 1.19970753,7.95082049 2.08891859,8.83815558 C2.97812965,9.72549067 4.18379428,10.2226558 5.44,10.22 M5.44,0.08 C8.42103478,0.0800051115 10.838153,2.49563862 10.8399897,5.47667284 C10.8418265,8.45770705 8.42768683,10.8763173 5.44665432,10.8799959 C2.46562181,10.8836745 0.0455204348,8.47102967 0.04,5.49 C0.0346738631,4.05528639 0.601569425,2.67765322 1.61513322,1.66221246 C2.62869701,0.646771691 4.00527899,0.0773282892 5.44,0.08" id="Fill-3" stroke="#000000" stroke-width="1.8" fill="#000000" fill-rule="nonzero"></path>
            </g>
            <g id="Group-8" transform="translate(113.000000, 153.000000)">
                <polygon id="Clip-7" points="0.25 1.88 11.05 1.88 11.05 12.67 0.25 12.67"></polygon>
                <path d="M5.64,10.22 C7.55896504,10.2240442 9.29103909,9.07066518 10.0272646,7.29854353 C10.7634902,5.52642187 10.3585918,3.48524059 9.00167562,2.12832438 C7.64475941,0.771408176 5.60357813,0.366509849 3.83145647,1.10273538 C2.05933482,1.83896091 0.905955803,3.57103496 0.91,5.49 C0.907337662,6.74528828 1.40482053,7.94992977 2.29244538,8.83755462 C3.18007023,9.72517947 4.38471172,10.2226623 5.64,10.22 M5.64,0.08 C8.62233013,0.0744822802 11.0444603,2.48766373 11.0499815,5.46999386 C11.0555026,8.45232399 8.64232391,10.874457 5.65999379,10.8799815 C2.67766367,10.885506 0.255527947,8.47233012 0.25,5.49 C0.244682787,4.05702101 0.81020795,2.68090978 1.82160592,1.66575895 C2.83300389,0.650608109 4.20701114,0.079990135 5.64,0.08" id="Fill-6" stroke="#000000" stroke-width="1.8" fill="#000000" fill-rule="nonzero"></path>
            </g>
            <path d="M132.94,163.21 C135.552307,163.21 137.67,161.092307 137.67,158.48 C137.67,155.867693 135.552307,153.75 132.94,153.75 L130.44,153.75 L130.44,163.21 L132.94,163.21 Z M129.74,153.29 C129.739483,153.186904 129.81742,153.100308 129.92,153.09 L133.06,153.09 C136.036815,153.09 138.45,155.503185 138.45,158.48 C138.45,161.456815 136.036815,163.87 133.06,163.87 L129.92,163.87 C129.81742,163.859692 129.739483,163.773096 129.74,163.67 L129.74,153.29 Z" id="Fill-9" stroke="#000000" stroke-width="1.8" fill="#000000" fill-rule="nonzero"></path>
            <g id="Group-13" transform="translate(150.000000, 153.000000)">
                <polygon id="Clip-12" points="0.95 1.88 10.32 1.88 10.32 12.67 0.95 12.67"></polygon>
                <path d="M6.46,0.08 C7.8223847,0.0484196649 9.14310399,0.550867219 10.14,1.48 C10.1760311,1.51568341 10.1963026,1.56428962 10.1963026,1.615 C10.1963026,1.66571038 10.1760311,1.71431659 10.14,1.75 C10.0616539,1.8381756 9.9781756,1.92165386 9.89,2 C9.8,2.11 9.72,2.09 9.63,2 C8.07996367,0.561772134 5.76254204,0.329910953 3.95828975,1.43253769 C2.15403746,2.53516442 1.30325618,4.70319897 1.87606834,6.73863462 C2.4488805,8.77407026 4.30549959,10.1801884 6.42,10.18 C7.53480376,10.2166536 8.63620269,9.92827468 9.59,9.35 L9.59,6.54 L7,6.54 C6.83,6.54 6.8,6.48 6.8,6.34 L6.8,6.05 C6.8,5.93 6.8,5.87 7,5.87 L10.12,5.87 C10.2211497,5.86985981 10.3046764,5.94899034 10.31,6.05 L10.31,9.52 C10.3198116,9.67934642 10.2384332,9.83047768 10.1,9.91 C8.99621587,10.5674257 7.73473294,10.9130375 6.45,10.91 C4.46714434,10.9953878 2.59725097,9.98618989 1.5803503,8.2818071 C0.563449629,6.57742431 0.563449629,4.45257569 1.5803503,2.7481929 C2.59725097,1.04381011 4.46714434,0.0346121696 6.45,0.12" id="Fill-11" stroke="#000000" stroke-width="1.8" fill="#000000" fill-rule="nonzero"></path>
            </g>
            <path d="M170,159.07 C170.704579,159.064728 171.378051,158.779076 171.871564,158.27618 C172.365078,157.773285 172.637996,157.094554 172.63,156.39 C172.613531,154.950838 171.439245,153.794412 170,153.8 L166.88,153.79998 L166.88,159.07 L170,159.07 Z M166.15,153.29 C166.147254,153.2379 166.166053,153.186963 166.201987,153.149137 C166.237921,153.111312 166.287827,153.089928 166.34,153.09 L170,153.09 C170.878574,153.081947 171.72365,153.426715 172.345861,154.047046 C172.968072,154.667377 173.315394,155.511405 173.31,156.39 C173.303557,157.889855 172.303817,159.203799 170.86,159.61 L173.03,163.61 C173.1,163.73 173.03,163.88 172.92,163.88 L172.46,163.88 C172.369985,163.883754 172.286778,163.832245 172.25,163.75 L170.1,159.75 C169.916806,159.760091 169.733194,159.760091 169.55,159.75 L166.82,159.75 L166.82,163.7 C166.81778,163.75955 166.790364,163.815352 166.744585,163.853501 C166.698805,163.891651 166.638974,163.908554 166.58,163.9 L166.31,163.9 C166.203467,163.894667 166.119867,163.806667 166.12,163.7 L166.15,153.29 Z" id="Fill-14" stroke="#000000" stroke-width="1.8" fill="#000000" fill-rule="nonzero"></path>
            <g id="Group-18" transform="translate(178.000000, 153.000000)">
                <polygon id="Clip-17" points="0.98 1.88 11.79 1.88 11.79 12.67 0.98 12.67"></polygon>
                <path d="M6.37,10.22 C8.28896504,10.2240442 10.0210391,9.07066518 10.7572646,7.29854353 C11.4934902,5.52642187 11.0885918,3.48524059 9.73167562,2.12832438 C8.37475941,0.771408176 6.33357813,0.366509849 4.56145647,1.10273538 C2.78933482,1.83896091 1.6359558,3.57103496 1.64,5.49 C1.64,8.10230687 3.75769313,10.22 6.37,10.22 M6.37,0.08 C9.35233013,0.0744822802 11.7744603,2.48766373 11.7799815,5.46999386 C11.7855026,8.45232399 9.37232391,10.874457 6.38999379,10.8799815 C3.40766367,10.885506 0.985527947,8.47233012 0.98,5.49 C0.977345378,4.05783021 1.54372799,2.68326408 2.5545496,1.66869174 C3.56537121,0.654119402 4.9378302,0.0826497106 6.37,0.08" id="Fill-16" stroke="#000000" stroke-width="1.8" fill="#000000" fill-rule="nonzero"></path>
            </g>
            <path d="M195.33,153.29 C195.335045,153.181702 195.421702,153.095045 195.53,153.09 L195.86,153.09 C195.970457,153.09 196.06,153.179543 196.06,153.29 L196.06,159.77 C196.06,161.603585 197.546415,163.09 199.38,163.09 C201.213585,163.09 202.7,161.603585 202.7,159.77 L202.7,153.27 C202.692759,153.213213 202.712962,153.156368 202.754416,153.116887 C202.795871,153.077407 202.853634,153.059999 202.91,153.07 L203.22,153.07 C203.330457,153.07 203.42,153.159543 203.42,153.27 L203.42,159.83 C203.42,162.063992 201.608992,163.875 199.375,163.875 C197.141008,163.875 195.33,162.063992 195.33,159.83 L195.33,153.29 Z" id="Fill-19" stroke="#000000" stroke-width="1.8" fill="#000000" fill-rule="nonzero"></path>
            <path d="M213.51,159.33 C215.022579,159.291791 216.222411,158.042896 216.2,156.53 C216.20001,155.037205 214.992785,153.825508 213.5,153.82 L210.86,153.82 L210.86,159.33 L213.51,159.33 Z M210.16,153.33 C210.159867,153.223333 210.243467,153.135333 210.35,153.13 L213.54,153.13 C215.386831,153.229107 216.833519,154.755511 216.833519,156.605 C216.833519,158.454489 215.386831,159.980893 213.54,160.08 L210.84,160.08 L210.84,163.71 C210.83778,163.76955 210.810364,163.825352 210.764585,163.863501 C210.718805,163.901651 210.658974,163.918554 210.6,163.91 L210.33,163.91 C210.223467,163.904667 210.139867,163.816667 210.14,163.71 L210.16,153.33 Z" id="Fill-21" stroke="#000000" stroke-width="1.8" fill="#000000" fill-rule="nonzero"></path>
            <g id="Group-25">
                <polygon id="Clip-24" points="0.8 0.38 217.8 0.38 217.8 138.61 0.8 138.61"></polygon>
                <path d="M53.67,103.61 C33.81,116.783333 20.66,123.366667 14.22,123.36 L13.43,123.360005 C13.43,121.12 15.5333333,117.17 19.74,111.51 C26.84,104.003333 37.8866667,97.1666667 52.88,91 C55.59,90.73 57.97,90.43 60.04,90.11 C59.94,90.56 59.85,91.02 59.78,91.5 C59.4759524,93.5975415 59.8251027,95.7378329 60.78,97.63 C60.9791299,98.0039245 61.2393854,98.3419187 61.55,98.63 C59.1,100.07 56.49,101.72 53.69,103.63 M74.19,92.55 C72.8306189,93.0005673 71.4954958,93.5212652 70.19,94.11 C70.1295997,93.7487784 70.0358659,93.3939288 69.91,93.05 L69.91,93.05 C69.9514807,92.8985518 69.9848614,92.7450008 70.01,92.59 L70.25,91.77 C70.7030812,90.3315538 70.9554624,88.8374569 71,87.33 C70.9918977,86.4341181 70.7432289,85.5568697 70.28,84.79 L70.28,84.64 C68.04,80.96 64.3733333,79.1166667 59.28,79.11 C58.2073456,79.4527923 57.1110994,79.7168273 56,79.9 C55.2712152,79.479855 54.4651148,79.2111548 53.63,79.11 C39.7166667,82.8033333 30.5233333,86.2266667 26.05,89.38 C9.22333333,100.713333 0.806666667,109.92 0.8,117 C0.8,121.22 1.59,124.643333 3.17,127.27 C6.98333333,133.59 11.9833333,136.75 18.17,136.75 C25.01,136.75 38.95,129.903333 59.99,116.21 L60.78,116.21 C58.8518487,118.402176 57.7392282,121.192557 57.63,124.11 C58.050145,124.838785 58.3188452,125.644885 58.42,126.48 C61.44,132.28 64.5933333,135.176667 67.88,135.17 L68.67,135.17 C69.5566667,129.016667 74.8166667,118.76 84.45,104.4 L84.45,102.82 C84.45,97.9533333 81.03,94.53 74.19,92.55 M153.88,120.2 C153.88,122.57 155.73,124.2 159.41,124.94 C170.316667,124.94 183.983333,117.83 200.41,103.61 C202.51,101.24 203.57,99.39 203.57,98.08 C203.352586,98.1103292 203.133536,98.0369116 202.978312,97.881688 C202.823088,97.7264644 202.749671,97.5074141 202.78,97.29 L201.2,98.08 C199.507455,98.0014349 197.869966,97.4544512 196.47,96.5 L183.05,98.87 C183.05,98.0766667 182.26,97.2866667 180.68,96.5 L179.11,97.29 C176.47,96.37 175.16,95.05 175.16,93.29 C164.9,99.9966667 158.586667,107.106667 156.22,114.62 C155.56,114.62 154.77,116.47 153.85,120.15 M176,79.11 L176,79.9 L177.58,79.11 C183.493333,79.11 186.65,80.4433333 187.05,83.11 C188.1,83.11 188.63,83.9 188.63,85.48 C189.63,85.48 190.2,85.22 190.2,84.69 C197.7,84.69 205.593333,87.8533333 213.88,94.18 C216.506667,98 217.82,100.896667 217.82,102.87 L217.82,106 C208.411248,118.630076 195.520914,128.239613 180.73,133.65 C174.95,135.763333 169.95,136.816667 165.73,136.81 L164.94,136.81 C153.24,136.81 145.35,131.81 141.27,121.81 C140.74,121.81 140.27,120.23 139.69,117.07 C139.69,111.136667 143.9,103.763333 152.32,94.95 C163.653333,84.67 171.543333,79.4 175.99,79.14 M173.38,0.39 L173,2 L172,3.58 L172.59,5.16 C170.54485,9.77649324 168.102326,14.2064965 165.29,18.4 L165.88,19.98 L165.68,20.77 C162.92,23.01 161.27,28.34 161.15,28.87 C160,29 146.85,58.7 139.75,75 C138.82,74.87 136.52,79.35 132.05,88.17 C116.93,115.56 106.87,131.89 100.82,137.17 C100.546667,138.75 97.5866667,139.013333 91.94,137.96 C88.52,137.433333 86.4166667,135.72 85.63,132.82 L85.63,132.03 C94.7033333,125.59 104.16,112.823333 114,93.73 C116.1,90.9566667 123.726667,77.92 136.88,54.62 C136.651835,54.5971334 136.448207,54.4669518 136.331685,54.269456 C136.215162,54.0719602 136.199682,53.8307717 136.29,53.62 C137.47,53.23 138.68,48.74 157.36,18.56 C156.873771,18.4878279 156.527674,18.0497306 156.57,17.56 C162.116667,11.5133333 166.073333,5.79 168.44,0.39 L170.02,0.79 L169.63,3 L170.42,3.2 C171.086667,1.2 172.086667,0.276666667 173.42,0.43" id="Fill-23" fill="#000000" fill-rule="nonzero"></path>
            </g>
        </g>
    </g>
</svg>