<svg width="1000" height="297" viewBox="0 0 1000 297" fill="none" xmlns="http://www.w3.org/2000/svg">
<g clip-path="url(#clip0_274:633)">
<path d="M397.506 136.112H378.849V67.0367H425.582C429.913 66.9584 434.234 67.4831 438.42 68.5957C441.542 69.4549 444.446 70.9674 446.939 73.0328C449.118 74.8693 450.773 77.2479 451.738 79.9284C452.755 82.8378 453.263 85.9008 453.238 88.9826C453.29 91.5767 452.863 94.1582 451.978 96.5976C451.257 98.6735 450.136 100.588 448.679 102.234C447.283 103.806 445.642 105.143 443.82 106.191C441.91 107.262 439.901 108.146 437.82 108.83L460.437 136.112H438.78L417.843 110.689H397.506V136.112ZM434.341 88.8626C434.367 87.7002 434.184 86.5426 433.801 85.4448C433.454 84.5158 432.825 83.7188 432.001 83.1663C430.944 82.5037 429.758 82.0744 428.522 81.9071C426.72 81.592 424.891 81.4515 423.062 81.4874H397.506V96.2379H423.062C424.889 96.2604 426.714 96.14 428.522 95.8781C429.755 95.665 430.937 95.2172 432.001 94.5589C432.85 94.0336 433.487 93.2272 433.801 92.2804C434.188 91.1836 434.371 90.0253 434.341 88.8626V88.8626Z" fill="#241F19"/>
<path d="M492.529 136.112V67.0367H511.187V136.112H492.529Z" fill="#241F19"/>
<path d="M629.074 90.6015C629.103 93.8452 628.575 97.0699 627.514 100.135C626.58 103.016 624.904 105.601 622.654 107.63C620.165 109.875 617.217 111.553 614.016 112.547C609.797 113.819 605.402 114.406 600.997 114.286H570.042V136.112H551.564V67.0367H601.177C605.58 66.9469 609.971 67.5333 614.196 68.7756C617.393 69.7506 620.34 71.4077 622.834 73.6324C625.071 75.6725 626.745 78.2537 627.694 81.1276C628.689 84.1843 629.155 87.3881 629.074 90.6015V90.6015ZM610.176 90.9613C610.196 89.5349 609.973 88.1156 609.516 86.764C609.06 85.6328 608.29 84.6552 607.297 83.9458C606.053 83.1511 604.668 82.6016 603.217 82.3269C601.24 81.9498 599.231 81.769 597.218 81.7872H570.282V99.7756H597.218C599.225 99.7715 601.229 99.6313 603.217 99.3559C604.666 99.1443 606.056 98.6339 607.297 97.8568C608.288 97.1975 609.061 96.2583 609.516 95.1586C610 93.8139 610.224 92.3895 610.176 90.9613V90.9613Z" fill="#241F19"/>
<path d="M740.714 90.6015C740.733 93.8396 740.226 97.0592 739.215 100.135C738.233 102.993 736.564 105.567 734.355 107.63C731.833 109.861 728.869 111.537 725.657 112.547C721.459 113.819 717.083 114.407 712.698 114.286H681.683V136.112H663.025V67.0367H712.698C717.082 66.9463 721.452 67.5329 725.657 68.7756C728.864 69.7684 731.828 71.423 734.355 73.6325C736.551 75.7066 738.218 78.2769 739.215 81.1276C740.22 84.1847 740.726 87.3836 740.714 90.6015ZM721.817 90.9613C721.837 89.5349 721.613 88.1156 721.157 86.764C720.7 85.6328 719.93 84.6552 718.938 83.9458C717.693 83.1511 716.309 82.6016 714.858 82.3269C712.881 81.9482 710.872 81.7674 708.859 81.7872H681.863V99.7756H708.859C710.866 99.7723 712.87 99.6321 714.858 99.3559C716.307 99.1443 717.696 98.6339 718.938 97.8568C719.929 97.1975 720.702 96.2583 721.157 95.1586C721.641 93.8139 721.865 92.3895 721.817 90.9613Z" fill="#241F19"/>
<path d="M774.671 136.112V67.0367H793.328V121.002H843.781V136.112H774.671Z" fill="#241F19"/>
<path d="M877.26 136.112V67.0367H947.51V81.7872H896.697V93.1798H944.69V107.93H896.697V121.422H948.23V136.112H877.26Z" fill="#241F19"/>
<path d="M412.624 188.578L398.286 228.333H393.307L378.849 188.578H383.948L395.946 221.377L407.945 188.578H412.624Z" fill="#241F19"/>
<path d="M466.676 223.835V228.333H438.899V188.578H466.616V193.075H443.579V206.267H462.356V210.824H443.579V223.835H466.676Z" fill="#241F19"/>
<path d="M529.186 188.578V228.333H524.447L500.15 196.193V228.333H495.411V188.578H500.15L524.447 220.658V188.578H529.186Z" fill="#241F19"/>
<path d="M586.538 193.075H573.28V228.333H568.48V193.075H555.162V188.578H586.538V193.075Z" fill="#241F19"/>
<path d="M644.788 188.578V213.102C644.788 217.38 643.088 221.483 640.061 224.508C637.035 227.533 632.93 229.232 628.65 229.232C624.37 229.232 620.266 227.533 617.239 224.508C614.213 221.483 612.513 217.38 612.513 213.102V188.578H617.312V213.102C617.312 222.157 622.591 224.315 628.77 224.315C630.297 224.55 631.858 224.421 633.326 223.941C634.794 223.46 636.129 222.641 637.221 221.549C638.314 220.457 639.133 219.123 639.614 217.656C640.095 216.189 640.223 214.629 639.989 213.102V188.578H644.788Z" fill="#241F19"/>
<path d="M704.423 218.379V228.333H699.683V218.379C699.683 213.462 695.724 212.023 690.864 212.023H679.586V228.333H674.847V188.578H692.004C700.223 188.578 705.082 192.356 705.082 199.851C705.164 202.423 704.227 204.924 702.474 206.81C700.722 208.696 698.297 209.815 695.724 209.924C701.003 210.344 704.423 212.023 704.423 218.379ZM679.526 207.406H691.944V209.805V207.406C692.996 207.507 694.057 207.386 695.058 207.051C696.06 206.717 696.981 206.177 697.761 205.465C698.541 204.753 699.163 203.886 699.587 202.919C700.011 201.952 700.228 200.907 700.223 199.851C700.223 195.534 696.924 193.195 691.944 193.195H679.526V207.406Z" fill="#241F19"/>
<path d="M761.531 223.835V228.333H733.755V188.578H761.531V193.075H738.554V206.267H757.332V210.824H738.554V223.835H761.531Z" fill="#241F19"/>
<path d="M792.131 215.441C792.401 217.953 793.605 220.271 795.506 221.937C797.406 223.603 799.863 224.495 802.389 224.435C803.325 224.553 804.274 224.473 805.177 224.2C806.079 223.927 806.913 223.468 807.626 222.851C808.339 222.235 808.914 221.475 809.315 220.622C809.715 219.769 809.931 218.841 809.948 217.899C809.948 213.522 805.869 212.503 801.489 210.824C795.49 208.605 788.291 206.267 788.291 198.832C788.318 197.319 788.657 195.827 789.285 194.451C789.913 193.074 790.818 191.841 791.944 190.829C793.069 189.817 794.391 189.047 795.826 188.567C797.262 188.086 798.781 187.907 800.29 188.039C801.946 187.951 803.601 188.224 805.141 188.838C806.681 189.453 808.07 190.394 809.211 191.597C810.351 192.8 811.217 194.236 811.749 195.806C812.28 197.376 812.464 199.042 812.288 200.69H808.029C808.11 199.601 807.955 198.508 807.573 197.484C807.191 196.461 806.592 195.533 805.816 194.763C805.041 193.994 804.107 193.402 803.081 193.027C802.054 192.653 800.959 192.506 799.87 192.596C796.27 192.596 792.611 194.275 792.611 198.592C792.611 202.909 796.81 204.048 802.269 206.267C807.729 208.485 814.268 210.164 814.268 217.959C814.343 219.512 814.076 221.062 813.485 222.5C812.895 223.938 811.995 225.229 810.851 226.281C809.706 227.334 808.344 228.122 806.862 228.59C805.379 229.059 803.811 229.196 802.269 228.992C800.384 229.157 798.485 228.932 796.69 228.332C794.895 227.732 793.244 226.77 791.837 225.504C790.43 224.239 789.299 222.698 788.514 220.977C787.728 219.256 787.305 217.392 787.271 215.501L792.131 215.441Z" fill="#241F19"/>
<path d="M36.3551 215.441C66.7708 195.894 81.0489 144.267 87.648 104.632L87.9479 103.073C93.1913 82.9622 105.598 65.4551 122.84 53.8384C140.082 42.2217 160.973 37.2942 181.592 39.9807C202.211 42.6671 221.14 52.7829 234.826 68.4292C248.512 84.0756 256.014 104.177 255.924 124.959C255.279 144.22 248.245 162.719 235.929 177.546C223.614 192.374 206.716 202.688 187.894 206.866L179.615 209.445C189.084 217.024 200.542 221.708 212.61 222.936C216.45 223.296 220.289 223.476 224.009 223.476C240.387 223.419 256.273 217.869 269.119 207.714C281.966 197.559 291.03 183.388 294.859 167.472C295.724 161.072 296.165 154.622 296.179 148.164C296.27 125.395 291.105 102.912 281.086 82.4624C271.067 62.0132 256.464 44.1494 238.412 30.2602C220.36 16.371 199.346 6.83082 177.005 2.38143C154.663 -2.06796 131.595 -1.30662 109.596 4.60632C87.5965 10.5193 67.2581 21.4244 50.1624 36.4737C33.0667 51.523 19.6746 70.3108 11.0272 91.3761C2.37989 112.441 -1.28951 135.216 0.304432 157.93C1.89837 180.644 8.71256 202.684 20.2173 222.336C26.008 221.153 31.4981 218.807 36.3551 215.441V215.441Z" fill="#241F19"/>
<path d="M223.708 261.671C205.049 261.574 186.705 256.844 170.327 247.906C153.95 238.968 140.051 226.101 129.881 210.464C139.231 196.823 146.641 181.95 151.898 166.273C160.666 170.153 170.413 171.247 179.823 169.408C189.233 167.569 197.851 162.885 204.51 155.991C211.169 149.096 215.548 140.323 217.055 130.859C218.563 121.395 217.124 111.696 212.936 103.076C208.747 94.4554 202.01 87.3291 193.637 82.6612C185.263 77.9933 175.657 76.009 166.118 76.9769C156.579 77.9448 147.567 81.8182 140.303 88.0729C133.039 94.3277 127.872 102.662 125.502 111.948C113.504 181.923 90.0471 228.153 55.132 249.319C51.9454 251.229 48.6391 252.931 45.2334 254.416C71.8717 280.201 107.234 295.037 144.305 295.981C181.376 296.925 217.448 283.908 245.365 259.512C238.234 260.934 230.98 261.657 223.708 261.671Z" fill="#241F19"/>
<path d="M987.881 67.0967C989.508 67.1014 991.119 67.4275 992.62 68.0561C994.043 68.6807 995.343 69.5538 996.459 70.6344C997.528 71.7608 998.399 73.0579 999.039 74.4719C999.683 75.9683 1000.01 77.58 1000.01 79.2089C1000.01 80.8377 999.683 82.4494 999.039 83.9458C998.414 85.3499 997.54 86.6296 996.459 87.7233C995.364 88.8451 994.06 89.7414 992.62 90.3617C991.115 90.9697 989.504 91.2754 987.881 91.2611C986.276 91.277 984.685 90.9711 983.201 90.3617C981.755 89.7528 980.449 88.855 979.362 87.7233C978.267 86.6412 977.392 85.3587 976.782 83.9458C976.139 82.4494 975.807 80.8377 975.807 79.2089C975.807 77.58 976.139 75.9683 976.782 74.4719C977.4 73.0459 978.275 71.7452 979.362 70.6344C980.468 69.5411 981.771 68.6663 983.201 68.0561C984.681 67.426 986.272 67.0998 987.881 67.0967ZM987.881 68.176C986.4 68.1712 984.932 68.4564 983.561 69.0155C982.251 69.5441 981.066 70.3406 980.082 71.3539C979.113 72.3619 978.34 73.5412 977.802 74.8317C976.684 77.6221 976.684 80.7357 977.802 83.5261C978.361 84.8193 979.155 85.9983 980.142 87.0038C981.099 88.0214 982.266 88.8192 983.561 89.3423C984.924 89.9366 986.394 90.2434 987.881 90.2434C989.367 90.2434 990.838 89.9366 992.2 89.3423C993.455 88.7459 994.609 87.9569 995.62 87.0038C996.57 85.9587 997.34 84.7632 997.899 83.4661C998.44 82.092 998.705 80.6251 998.679 79.1489C998.698 77.6731 998.434 76.2075 997.899 74.8317C997.286 73.6083 996.475 72.4941 995.5 71.5338C994.511 70.5541 993.352 69.7618 992.08 69.1953C990.777 68.597 989.372 68.2511 987.941 68.176H987.881ZM983.441 72.0734H988.781C990.048 71.9422 991.317 72.3077 992.32 73.0928C992.721 73.464 993.031 73.9215 993.229 74.4305C993.426 74.9396 993.505 75.4868 993.46 76.0309C993.458 76.5453 993.356 77.0545 993.16 77.5299C993.008 77.9735 992.739 78.3674 992.38 78.6692C992.038 78.9642 991.654 79.2067 991.24 79.3887C990.778 79.5834 990.295 79.7242 989.8 79.8085L994.06 86.3443H992.68L988.361 79.7485H984.701V86.3443H983.501L983.441 72.0734ZM984.701 78.6692H989.5C989.996 78.621 990.481 78.4997 990.94 78.3094C991.355 78.1356 991.725 77.8689 992.02 77.5299C992.301 77.0809 992.447 76.5605 992.44 76.0309C992.449 75.5469 992.324 75.0698 992.08 74.6518C991.896 74.2903 991.602 73.9964 991.24 73.8123C990.902 73.5683 990.512 73.4043 990.1 73.3327C989.662 73.2734 989.219 73.2734 988.781 73.3327H984.881L984.701 78.6692Z" fill="#241F19"/>
</g>
<defs>
<clipPath id="clip0_274:633">
<rect width="1000" height="296.029" fill="white"/>
</clipPath>
</defs>
</svg>
