<svg enable-background="new 0 0 254 107.1" viewBox="0 0 254 107.1" xmlns="http://www.w3.org/2000/svg"><g fill="#85714d"><path d="m128.8 107h-1.3v-2.7l-2.3-4.3h1.5l1.5 3 1.5-3h1.5l-2.3 4.3v2.7z"/><path d="m146.7 103.5c0 2-1.4 3.6-3.4 3.6s-3.4-1.6-3.4-3.6 1.4-3.6 3.4-3.6c2-.1 3.4 1.5 3.4 3.6zm-1.3 0c0-1.3-.9-2.4-2.1-2.4-1.1 0-2.1 1.1-2.1 2.4s.9 2.4 2.1 2.4c1.2-.1 2.1-1.1 2.1-2.4z"/><path d="m162.3 107h-1.3c-.1-.2-.1-.4-.1-.8v-1.1c0-.6-.3-.9-.9-.9h-1.8v2.7h-1.3v-6.9h3.2c1.4 0 2.4.8 2.4 2.1 0 .8-.4 1.3-1 1.6.5.3.8.7.8 1.5v1c-.2.2-.1.6 0 .8zm-2.3-3.9c.2 0 1-.1 1-.9 0-.2 0-.9-1.1-.9h-1.8v1.8z"/><path d="m173.9 104.6v2.4h-1.3v-7h1.3v2.8l2.6-2.8h1.8l-2.8 2.9 2.9 4h-1.7l-2.1-3.1z"/><path d="m191.2 107h-1.4l-2.3-6.9h1.4l1.6 5.3 1.6-5.3h1.4z"/><path d="m204.6 107h-1.3v-7h1.3z"/><path d="m216.4 105.7h3.4v1.2h-4.8v-6.9h1.3v5.7z"/><path d="m231.1 105.7h3.4v1.2h-4.8v-6.9h1.3v5.7z"/><path d="m249.6 107h-5.1v-7h5.1v1.2h-3.7v1.5h3.2v1.2h-3.2v1.8h3.8v1.3z"/></g><path d="m3.2 49.4c-1.1 0-1-1-1-1 0-3.7 1.8-7 5.3-9.5 3.6-2.5 8-3.7 13.3-3.7 5.4 0 10.1.7 13.8 4.6 3 3.1 3.4 5.4 3.4 12.4v26.4c0 4.7 2.8 7.6 6.2 7.6 3.8 0 6.1-3.4 6.1-8.5v-75.7c0-1.4.1-2 .8-2 .8 0 .9.2.9 1.7v75.2c-.1 7.3-2.5 10.7-7.7 10.9-5.1.2-7.8-3.7-8-8.4v-5.2l-1.1 2.3c-2 3.4-2.9 4.1-4.6 5.6-3.9 3.3-8.6 5.6-15 5.6-5.2 0-8.1-1.2-10.8-3.5-3.3-2.6-4.8-5.6-4.8-9.8 0-3.5.9-6.1 3.1-8.7s4.5-3.7 8.1-4.7c1.8-.5 4.3-.8 8.4-1.1 5.6-.4 9.4-1.2 12.6-3.3 2.5-1.6 4-4.6 4-7.9 0-4.2-1.5-7.1-4.2-9.2s-6.6-3-11.1-3c-4.7 0-8.4 1.1-11.5 3-2.9 1.7-5.4 4.6-5.5 7.5v1.2c0 1.1-.7 1.2-.7 1.2zm12.2 36.8c5.5 0 11-2.2 14.8-6s6.2-8.9 6.2-13.5v-10.4c0-.7-.1-1-.4-1-.1 0-.4.5-1.1 1.2-3.2 3.1-7 4.3-15.3 5-4.4.4-7.7.8-9.9 1.5-2.2.8-4 2-5.4 3.8-1.7 2-2.5 4.5-2.5 7.4 0 3.4 1.3 6.3 4 8.6 2.6 2.4 5.4 3.4 9.6 3.4zm70.2 1.6c-7.2 0-13-2.5-17.5-7.4s-6.8-11.4-6.8-19.4c0-7.7 2.2-14.1 6.7-18.9 4.5-4.9 10.3-7.3 17.5-7.3 7 0 12.7 2.5 17.2 7.6s6.7 11.6 6.7 19.5c0 7.6-2.2 13.8-6.7 18.6-4.4 4.9-10.1 7.3-17.1 7.3zm0-51.4c-6.3 0-12.3 2.4-16.3 6.8s-6.4 10.7-6.4 17.7c0 7.4 2.2 13.6 6.1 18.2 4 4.6 10.3 7.3 16.7 7.3 6.3 0 12.1-2.7 16-7.1s6.1-10.6 6.1-17.7c0-7.4-2.6-13.5-6.5-18-3.8-4.6-9.3-7.2-15.7-7.2z" fill="#a4bcc2"/><g fill="#85714d"><path d="m145 34.8c-5.5 0-10.2 1.4-14.1 4.3v-37.1c0-1.4-.1-2-.8-2s-.8.2-.8 1.7v38.7c-.6.5-1.2 1.1-1.8 1.7-4.5 4.9-6.7 11.2-6.7 18.9 0 8 2.2 14.4 6.7 19.3s10.3 7.4 17.5 7.4c7 0 12.7-2.4 17.2-7.2s6.7-11 6.7-18.6c0-7.9-2.2-14.5-6.7-19.5s-10.2-7.6-17.2-7.6zm16.2 44.5c-3.9 4.4-9.7 7.1-16 7.1s-12.7-2.7-16.7-7.3-6.1-10.8-6.1-18.2c0-7 2.4-13.3 6.4-17.7.2-.2.3-.3.5-.5v24.7c0 1.4.1 1.7.8 1.7s.8-.6.8-2v-25.9c3.8-3.1 8.8-4.8 14.1-4.8 6.3 0 11.9 2.6 15.8 7.1s6.5 10.6 6.5 18c-.1 7.1-2.2 13.4-6.1 17.8z"/><path d="m253.8 41.1c-1.8-3.3-4.9-5.3-9.2-5.9-4.3-.5-8.8.5-13.5 3-2.9 1.6-5.4 3.3-7.3 5.6v-7c0-1.4-.1-1.7-.8-1.7s-.8.6-.8 2v40.5c0 5.1-2.3 8.5-6.1 8.5-3.4 0-6.2-2.9-6.2-7.6v-26.3c0-7.1-.4-9.3-3.4-12.4-3.7-3.9-8.4-4.6-13.8-4.6-5.3 0-9.7 1.2-13.3 3.7s-5.3 5.8-5.3 9.5c0 0-.1 1 1 1 0 0 .7-.1.8-1.2 0-.3 0-1.2 0-1.2.1-3 2.6-5.8 5.5-7.5 3.1-1.8 6.9-3 11.5-3 4.4 0 8.4.9 11.1 3s4.2 5 4.2 9.2c0 3.4-1.6 6.3-4 7.9-3.2 2.1-7 2.9-12.6 3.3-4.1.3-6.6.6-8.4 1.1-3.6 1-5.9 2.1-8.1 4.7s-3.1 5.2-3.1 8.7c0 4.2 1.5 7.2 4.6 9.8 2.7 2.3 5.6 3.5 10.8 3.5 6.5 0 11.1-2.3 15-5.6 1.7-1.5 2.6-2.2 4.6-5.6l1.1-2.3v5.2c.2 4.7 3 8.7 8 8.4 5.1-.2 7.6-3.6 7.7-10.9v-30.3c1.5-2.7 4.3-5.1 7.8-6.9 4.1-2.2 7.9-3 11.6-2.8 3.3.1 6.9 1.5 8.4 4 0 0 .4.7.6 1 .5.9 1.2.6 1.2.6 1-.5.4-1.4.4-1.4zm-45.5 25.5c0 4.6-2.4 9.7-6.2 13.5-3.8 3.9-9.3 6-14.8 6-4.1 0-7-1-9.6-3.2-2.7-2.3-4-5.1-4-8.6 0-3 .8-5.4 2.5-7.4 1.5-1.8 3.3-3.1 5.4-3.8 2.2-.8 5.5-1.2 9.9-1.5 8.3-.7 12.1-2 15.3-5 .8-.7 1.1-1.2 1.1-1.2.3 0 .4.3.4 1z"/></g></svg>